<mxfile host="app.diagrams.net" modified="2022-12-20T13:21:03.419Z" agent="5.0 (Windows NT 10.0; Win64; x64) AppleWebKit/537.36 (KHTML, like Gecko) Chrome/108.0.0.0 Safari/537.36 Edg/108.0.1462.54" version="20.7.2" etag="ZE1VITr5epXgLsnNNtTZ" type="github">
  <diagram id="x_f5IhDQYVytXRK_a4vZ" name="第 1 页">
    <mxGraphModel dx="783" dy="517" grid="0" gridSize="10" guides="1" tooltips="1" connect="1" arrows="1" fold="1" page="1" pageScale="1" pageWidth="827" pageHeight="1169" math="0" shadow="0">
      <root>
        <mxCell id="0" />
        <mxCell id="1" parent="0" />
        <mxCell id="qhMdmr4EQ_qG-nYsN4Kq-1" value="" style="ellipse;whiteSpace=wrap;html=1;aspect=fixed;" vertex="1" parent="1">
          <mxGeometry x="380" y="180" width="50" height="50" as="geometry" />
        </mxCell>
        <mxCell id="qhMdmr4EQ_qG-nYsN4Kq-2" value="" style="ellipse;whiteSpace=wrap;html=1;aspect=fixed;" vertex="1" parent="1">
          <mxGeometry x="570" y="290" width="50" height="50" as="geometry" />
        </mxCell>
        <mxCell id="qhMdmr4EQ_qG-nYsN4Kq-3" value="" style="ellipse;whiteSpace=wrap;html=1;aspect=fixed;" vertex="1" parent="1">
          <mxGeometry x="270" y="290" width="50" height="50" as="geometry" />
        </mxCell>
        <mxCell id="qhMdmr4EQ_qG-nYsN4Kq-4" value="" style="ellipse;whiteSpace=wrap;html=1;aspect=fixed;" vertex="1" parent="1">
          <mxGeometry x="650" y="290" width="50" height="50" as="geometry" />
        </mxCell>
        <mxCell id="qhMdmr4EQ_qG-nYsN4Kq-6" value=".........." style="text;html=1;strokeColor=none;fillColor=none;align=center;verticalAlign=middle;whiteSpace=wrap;rounded=0;fontStyle=1;fontSize=15;" vertex="1" parent="1">
          <mxGeometry x="405" y="406" width="60" height="30" as="geometry" />
        </mxCell>
        <mxCell id="qhMdmr4EQ_qG-nYsN4Kq-7" value=".........." style="text;html=1;strokeColor=none;fillColor=none;align=center;verticalAlign=middle;whiteSpace=wrap;rounded=0;fontStyle=1;fontSize=15;" vertex="1" parent="1">
          <mxGeometry x="527" y="406" width="60" height="30" as="geometry" />
        </mxCell>
        <mxCell id="qhMdmr4EQ_qG-nYsN4Kq-8" value="" style="ellipse;whiteSpace=wrap;html=1;aspect=fixed;dashed=1;" vertex="1" parent="1">
          <mxGeometry x="468" y="400" width="50" height="50" as="geometry" />
        </mxCell>
        <mxCell id="qhMdmr4EQ_qG-nYsN4Kq-9" value="经过城市1" style="text;html=1;strokeColor=none;fillColor=none;align=center;verticalAlign=middle;whiteSpace=wrap;rounded=0;dashed=1;fontSize=11;" vertex="1" parent="1">
          <mxGeometry x="430" y="190" width="80" height="30" as="geometry" />
        </mxCell>
        <mxCell id="qhMdmr4EQ_qG-nYsN4Kq-11" value="经过城市1、2" style="text;html=1;strokeColor=none;fillColor=none;align=center;verticalAlign=middle;whiteSpace=wrap;rounded=0;dashed=1;fontSize=11;" vertex="1" parent="1">
          <mxGeometry x="220" y="330" width="80" height="30" as="geometry" />
        </mxCell>
        <mxCell id="qhMdmr4EQ_qG-nYsN4Kq-12" value="经过城市1、49" style="text;html=1;strokeColor=none;fillColor=none;align=center;verticalAlign=middle;whiteSpace=wrap;rounded=0;dashed=1;fontSize=11;" vertex="1" parent="1">
          <mxGeometry x="490" y="330" width="100" height="30" as="geometry" />
        </mxCell>
        <mxCell id="qhMdmr4EQ_qG-nYsN4Kq-13" value="经过城市1、50" style="text;html=1;strokeColor=none;fillColor=none;align=center;verticalAlign=middle;whiteSpace=wrap;rounded=0;dashed=1;fontSize=11;" vertex="1" parent="1">
          <mxGeometry x="603" y="330" width="100" height="30" as="geometry" />
        </mxCell>
        <mxCell id="qhMdmr4EQ_qG-nYsN4Kq-16" value="" style="endArrow=classic;html=1;rounded=0;fontSize=11;exitX=0.5;exitY=1;exitDx=0;exitDy=0;entryX=0.5;entryY=0;entryDx=0;entryDy=0;" edge="1" parent="1" source="qhMdmr4EQ_qG-nYsN4Kq-1" target="qhMdmr4EQ_qG-nYsN4Kq-3">
          <mxGeometry width="50" height="50" relative="1" as="geometry">
            <mxPoint x="415" y="240" as="sourcePoint" />
            <mxPoint x="215" y="300" as="targetPoint" />
          </mxGeometry>
        </mxCell>
        <mxCell id="qhMdmr4EQ_qG-nYsN4Kq-17" value="" style="endArrow=classic;html=1;rounded=0;fontSize=11;exitX=0.5;exitY=1;exitDx=0;exitDy=0;entryX=0.5;entryY=0;entryDx=0;entryDy=0;" edge="1" parent="1" source="qhMdmr4EQ_qG-nYsN4Kq-1" target="qhMdmr4EQ_qG-nYsN4Kq-4">
          <mxGeometry width="50" height="50" relative="1" as="geometry">
            <mxPoint x="415" y="240" as="sourcePoint" />
            <mxPoint x="305" y="300" as="targetPoint" />
          </mxGeometry>
        </mxCell>
        <mxCell id="qhMdmr4EQ_qG-nYsN4Kq-18" value="" style="endArrow=classic;html=1;rounded=0;fontSize=11;entryX=0.5;entryY=0;entryDx=0;entryDy=0;" edge="1" parent="1" target="qhMdmr4EQ_qG-nYsN4Kq-2">
          <mxGeometry width="50" height="50" relative="1" as="geometry">
            <mxPoint x="410" y="230" as="sourcePoint" />
            <mxPoint x="685" y="300" as="targetPoint" />
          </mxGeometry>
        </mxCell>
        <mxCell id="qhMdmr4EQ_qG-nYsN4Kq-21" value="选择下个城市为2" style="text;html=1;strokeColor=none;fillColor=none;align=center;verticalAlign=middle;whiteSpace=wrap;rounded=0;dashed=1;fontSize=11;" vertex="1" parent="1">
          <mxGeometry x="314" y="250" width="100" height="30" as="geometry" />
        </mxCell>
        <mxCell id="qhMdmr4EQ_qG-nYsN4Kq-22" value="选择下个城市为49" style="text;html=1;strokeColor=none;fillColor=none;align=center;verticalAlign=middle;whiteSpace=wrap;rounded=0;dashed=1;fontSize=11;" vertex="1" parent="1">
          <mxGeometry x="440" y="260" width="100" height="30" as="geometry" />
        </mxCell>
        <mxCell id="qhMdmr4EQ_qG-nYsN4Kq-23" value="选择下个城市为50" style="text;html=1;strokeColor=none;fillColor=none;align=center;verticalAlign=middle;whiteSpace=wrap;rounded=0;dashed=1;fontSize=11;" vertex="1" parent="1">
          <mxGeometry x="545" y="240" width="100" height="30" as="geometry" />
        </mxCell>
        <mxCell id="qhMdmr4EQ_qG-nYsN4Kq-24" value="" style="endArrow=none;html=1;rounded=0;fontSize=11;" edge="1" parent="1">
          <mxGeometry width="50" height="50" relative="1" as="geometry">
            <mxPoint x="266" y="283" as="sourcePoint" />
            <mxPoint x="331" y="342" as="targetPoint" />
          </mxGeometry>
        </mxCell>
        <mxCell id="qhMdmr4EQ_qG-nYsN4Kq-25" value="" style="endArrow=none;html=1;rounded=0;fontSize=11;" edge="1" parent="1">
          <mxGeometry width="50" height="50" relative="1" as="geometry">
            <mxPoint x="309" y="251.5" as="sourcePoint" />
            <mxPoint x="390" y="298.5" as="targetPoint" />
          </mxGeometry>
        </mxCell>
        <mxCell id="qhMdmr4EQ_qG-nYsN4Kq-27" value="min_distance_possible&amp;gt;=&lt;br&gt;min_distance_upper_bound" style="text;html=1;strokeColor=none;fillColor=none;align=center;verticalAlign=middle;whiteSpace=wrap;rounded=0;dashed=1;fontSize=11;" vertex="1" parent="1">
          <mxGeometry x="150" y="243" width="160" height="30" as="geometry" />
        </mxCell>
        <mxCell id="qhMdmr4EQ_qG-nYsN4Kq-28" value="" style="ellipse;whiteSpace=wrap;html=1;aspect=fixed;" vertex="1" parent="1">
          <mxGeometry x="587" y="400" width="50" height="50" as="geometry" />
        </mxCell>
        <mxCell id="qhMdmr4EQ_qG-nYsN4Kq-29" value="" style="ellipse;whiteSpace=wrap;html=1;aspect=fixed;" vertex="1" parent="1">
          <mxGeometry x="349" y="403" width="50" height="50" as="geometry" />
        </mxCell>
        <mxCell id="qhMdmr4EQ_qG-nYsN4Kq-30" value="" style="ellipse;whiteSpace=wrap;html=1;aspect=fixed;" vertex="1" parent="1">
          <mxGeometry x="277" y="403" width="50" height="50" as="geometry" />
        </mxCell>
        <mxCell id="qhMdmr4EQ_qG-nYsN4Kq-31" value="" style="endArrow=classic;html=1;rounded=0;fontSize=11;exitX=0.5;exitY=1;exitDx=0;exitDy=0;entryX=0.5;entryY=0;entryDx=0;entryDy=0;" edge="1" parent="1" source="qhMdmr4EQ_qG-nYsN4Kq-2" target="qhMdmr4EQ_qG-nYsN4Kq-30">
          <mxGeometry width="50" height="50" relative="1" as="geometry">
            <mxPoint x="415" y="240" as="sourcePoint" />
            <mxPoint x="305" y="300" as="targetPoint" />
          </mxGeometry>
        </mxCell>
        <mxCell id="qhMdmr4EQ_qG-nYsN4Kq-32" value="" style="endArrow=classic;html=1;rounded=0;fontSize=11;entryX=0.5;entryY=0;entryDx=0;entryDy=0;" edge="1" parent="1" target="qhMdmr4EQ_qG-nYsN4Kq-29">
          <mxGeometry width="50" height="50" relative="1" as="geometry">
            <mxPoint x="595" y="339" as="sourcePoint" />
            <mxPoint x="380" y="417" as="targetPoint" />
          </mxGeometry>
        </mxCell>
        <mxCell id="qhMdmr4EQ_qG-nYsN4Kq-33" value="" style="endArrow=classic;html=1;rounded=0;fontSize=11;entryX=0.5;entryY=0;entryDx=0;entryDy=0;" edge="1" parent="1" target="qhMdmr4EQ_qG-nYsN4Kq-28">
          <mxGeometry width="50" height="50" relative="1" as="geometry">
            <mxPoint x="595" y="341" as="sourcePoint" />
            <mxPoint x="449" y="417" as="targetPoint" />
          </mxGeometry>
        </mxCell>
        <mxCell id="qhMdmr4EQ_qG-nYsN4Kq-39" value="经过城市1、49、2" style="text;html=1;strokeColor=none;fillColor=none;align=center;verticalAlign=middle;whiteSpace=wrap;rounded=0;dashed=1;fontSize=11;" vertex="1" parent="1">
          <mxGeometry x="220" y="447" width="60" height="30" as="geometry" />
        </mxCell>
        <mxCell id="qhMdmr4EQ_qG-nYsN4Kq-40" value="经过城市1、49、3" style="text;html=1;strokeColor=none;fillColor=none;align=center;verticalAlign=middle;whiteSpace=wrap;rounded=0;dashed=1;fontSize=11;" vertex="1" parent="1">
          <mxGeometry x="314" y="450" width="60" height="30" as="geometry" />
        </mxCell>
        <mxCell id="qhMdmr4EQ_qG-nYsN4Kq-41" value="经过城市1、49、50" style="text;html=1;strokeColor=none;fillColor=none;align=center;verticalAlign=middle;whiteSpace=wrap;rounded=0;dashed=1;fontSize=11;" vertex="1" parent="1">
          <mxGeometry x="555" y="447" width="62" height="30" as="geometry" />
        </mxCell>
        <mxCell id="qhMdmr4EQ_qG-nYsN4Kq-43" value="expense_now&amp;gt;&lt;br&gt;max_expense" style="text;html=1;strokeColor=none;fillColor=none;align=center;verticalAlign=middle;whiteSpace=wrap;rounded=0;dashed=1;fontSize=11;" vertex="1" parent="1">
          <mxGeometry x="181" y="406" width="102" height="30" as="geometry" />
        </mxCell>
        <mxCell id="qhMdmr4EQ_qG-nYsN4Kq-44" value="" style="endArrow=none;html=1;rounded=0;fontSize=11;" edge="1" parent="1">
          <mxGeometry width="50" height="50" relative="1" as="geometry">
            <mxPoint x="262.5" y="388" as="sourcePoint" />
            <mxPoint x="327.5" y="447" as="targetPoint" />
          </mxGeometry>
        </mxCell>
        <mxCell id="qhMdmr4EQ_qG-nYsN4Kq-45" value="" style="endArrow=none;html=1;rounded=0;fontSize=11;" edge="1" parent="1">
          <mxGeometry width="50" height="50" relative="1" as="geometry">
            <mxPoint x="391" y="355" as="sourcePoint" />
            <mxPoint x="426" y="386" as="targetPoint" />
          </mxGeometry>
        </mxCell>
        <mxCell id="qhMdmr4EQ_qG-nYsN4Kq-46" value=".........." style="text;html=1;strokeColor=none;fillColor=none;align=center;verticalAlign=middle;whiteSpace=wrap;rounded=0;fontStyle=1;fontSize=15;" vertex="1" parent="1">
          <mxGeometry x="345" y="296" width="60" height="30" as="geometry" />
        </mxCell>
        <mxCell id="qhMdmr4EQ_qG-nYsN4Kq-47" value=".........." style="text;html=1;strokeColor=none;fillColor=none;align=center;verticalAlign=middle;whiteSpace=wrap;rounded=0;fontStyle=1;fontSize=15;" vertex="1" parent="1">
          <mxGeometry x="467" y="296" width="60" height="30" as="geometry" />
        </mxCell>
        <mxCell id="qhMdmr4EQ_qG-nYsN4Kq-48" value="" style="ellipse;whiteSpace=wrap;html=1;aspect=fixed;dashed=1;" vertex="1" parent="1">
          <mxGeometry x="408" y="290" width="50" height="50" as="geometry" />
        </mxCell>
      </root>
    </mxGraphModel>
  </diagram>
</mxfile>
